<mxfile host="app.diagrams.net" modified="2020-09-30T02:24:02.491Z" agent="5.0 (Windows NT 10.0; WOW64) AppleWebKit/537.36 (KHTML, like Gecko) Chrome/81.0.4044.129 Safari/537.36" etag="NPdIZHuvxJjEZfDizzrT" version="13.7.6" type="github">
  <diagram id="Jc9SzXUocUntLnOkOWxm" name="Page-1">
    <mxGraphModel dx="1275" dy="922" grid="1" gridSize="10" guides="1" tooltips="1" connect="1" arrows="1" fold="1" page="1" pageScale="1" pageWidth="850" pageHeight="1100" math="0" shadow="0">
      <root>
        <mxCell id="0" />
        <mxCell id="1" parent="0" />
        <mxCell id="ld9aVelXwBx5VN83oY-y-1" value="Nexo" style="rounded=1;whiteSpace=wrap;html=1;fillColor=#FFCC99;" vertex="1" parent="1">
          <mxGeometry x="130" y="100" width="100" height="50" as="geometry" />
        </mxCell>
        <mxCell id="ld9aVelXwBx5VN83oY-y-2" value="" style="html=1;verticalLabelPosition=bottom;align=center;labelBackgroundColor=#ffffff;verticalAlign=top;strokeWidth=2;strokeColor=#0080F0;shadow=0;dashed=0;shape=mxgraph.ios7.icons.smartphone;fillColor=#FFCC99;" vertex="1" parent="1">
          <mxGeometry x="340" y="100" width="18" height="30" as="geometry" />
        </mxCell>
        <mxCell id="ld9aVelXwBx5VN83oY-y-3" value="" style="verticalLabelPosition=bottom;html=1;verticalAlign=top;align=center;strokeColor=none;fillColor=#00BEF2;shape=mxgraph.azure.laptop;pointerEvents=1;" vertex="1" parent="1">
          <mxGeometry x="320" y="142" width="50" height="30" as="geometry" />
        </mxCell>
      </root>
    </mxGraphModel>
  </diagram>
</mxfile>
